<svg width="512" height="512" viewBox="0 0 512 512" fill="none" xmlns="http://www.w3.org/2000/svg">
<path d="M391 496C391 471.147 370.853 451 346 451H166C141.147 451 121 471.147 121 496V512H391V496Z" fill="#333333"/>
<path d="M482 121V91H298.237C293.705 78.292 283.708 68.295 271 63.763V0H241V63.763C228.292 68.295 218.295 78.292 213.763 91H30V121H67.504L0 286C0 327.353 33.647 361 75 361H105C146.353 361 180 327.353 180 286L112.191 121H213.764C218.296 133.708 228.293 143.705 241.001 148.237V362.644C211.686 368.643 188.496 391.674 182.519 421H329.483C323.506 391.674 300.316 368.643 271.001 362.644V148.237C283.709 143.705 293.706 133.708 298.238 121H399.505L332 286C332 327.353 365.647 361 407 361H437C478.353 361 512 327.353 512 286L444.191 121H482ZM142.496 271H37.504L90 144.994L142.496 271ZM474.496 271H369.504L422 144.994L474.496 271Z" fill="#333333"/>
</svg>
