<svg width="24" height="24" viewBox="0 0 24 24" fill="none" xmlns="http://www.w3.org/2000/svg">
<path fill-rule="evenodd" clip-rule="evenodd" d="M22 22H23V24H1V22H2V14H22V22ZM15 17H9V23H11V18H13V23H15V17ZM6 20H4V22H6V20ZM20 20H18V22H20V20ZM6 16H4V18H6V16ZM20 16H18V18H20V16ZM24 13H0L3 6H6.943L4.342 8.229L5.002 9L11 3.857V0H16L15 1.491L16 3H12L18.999 9L19.66 8.229L17.058 6H21L24 13ZM12 6.5C13.38 6.5 14.5 7.62 14.5 9C14.5 10.38 13.38 11.5 12 11.5C10.62 11.5 9.5 10.38 9.5 9C9.5 7.62 10.62 6.5 12 6.5ZM12 9H13V9.8H11.237V8H12V9Z" fill="white"/>
</svg>
